<?xml version="1.0" encoding="utf-8"?>
<!-- Generator: Adobe Illustrator 28.1.0, SVG Export Plug-In . SVG Version: 6.00 Build 0)  -->
<svg version="1.1" id="레이어_1" xmlns="http://www.w3.org/2000/svg" xmlns:xlink="http://www.w3.org/1999/xlink" x="0px"
	 y="0px" viewBox="0 0 926 300" style="enable-background:new 0 0 926 300;" xml:space="preserve">
<style type="text/css">
	.st0{fill:#FF7A00;}
	.st1{fill:#FFDA7D;}
	.st2{fill:#FFB730;}
	.st3{display:none;fill:#FF0000;}
	.st4{fill:#FFFFFF;}
	.st5{fill:#282828;}
</style>
<g id="레이어_2_00000058554123395701288130000015163705561372995775_">
	<circle class="st0" cx="150" cy="150" r="150"/>
	<circle class="st1" cx="150" cy="150" r="140.2"/>
	<g>
		<path class="st2" d="M66,241.9c20.7,18.9,47.8,31,77.7,32.5V164.1C117.9,190.1,92,216,66,241.9z"/>
		<path class="st2" d="M136.9,155.4H25.6c1.3,30.3,13.4,57.8,32.5,78.7L136.9,155.4z"/>
		<path class="st2" d="M143.8,135.5V25.6C114,27.1,86.9,39,66.2,57.9C92.1,83.8,117.9,109.6,143.8,135.5z"/>
		<path class="st2" d="M58.4,65.7C39.2,86.6,27.1,114,25.7,144.2h111.2C110.7,118.1,84.5,91.9,58.4,65.7z"/>
		<path class="st2" d="M234.1,58.2c-21-19.3-48.7-31.4-79.2-32.6v111.7C181.3,110.9,207.7,84.5,234.1,58.2z"/>
		<path class="st2" d="M163.7,144.3h110.7c-1.4-30.1-13.4-57.4-32.5-78.2C215.8,92.1,189.8,118.2,163.7,144.3z"/>
		<path class="st2" d="M242.1,233.8c19-20.9,31-48.3,32.3-78.4H163.7C189.8,181.5,216,207.6,242.1,233.8z"/>
		<path class="st2" d="M154.9,162.3v112.1c30.6-1.2,58.3-13.4,79.4-32.7C207.8,215.2,181.3,188.7,154.9,162.3z"/>
	</g>
	<g>
		<path class="st1" d="M99,131.7c1,0.2,1.7,1.1,1.5,2.2l0,0c-0.2,1-1.1,1.7-2.2,1.5l-34.9-5.9c-1-0.2-1.7-1.1-1.5-2.2l0,0
			c0.2-1,1.1-1.7,2.2-1.5L99,131.7z"/>
		<path class="st1" d="M167.2,114c-0.5,0.9-1.7,1.2-2.6,0.7l0,0c-0.9-0.5-1.2-1.7-0.7-2.6l17.7-30.7c0.5-0.9,1.7-1.2,2.6-0.7l0,0
			c0.9,0.5,1.2,1.7,0.7,2.6L167.2,114z"/>
		<path class="st1" d="M166.9,83.7c-0.2,1-1.2,1.7-2.2,1.4l0,0c-1-0.2-1.7-1.2-1.4-2.2l7.3-34.6c0.2-1,1.2-1.7,2.2-1.4l0,0
			c1,0.2,1.7,1.2,1.4,2.2L166.9,83.7z"/>
		<path class="st1" d="M80.2,109.8c0.9,0.4,1.3,1.6,0.9,2.5l0,0c-0.4,0.9-1.6,1.3-2.5,0.9l-21.2-9.3c-0.9-0.4-1.3-1.6-0.9-2.5l0,0
			c0.4-0.9,1.6-1.3,2.5-0.9L80.2,109.8z"/>
		<path class="st1" d="M138.7,114.4c0.5,0.9,0.1,2-0.9,2.5l0,0c-0.9,0.5-2,0.1-2.5-0.9l-10.8-20.4c-0.5-0.9-0.1-2,0.9-2.5l0,0
			c0.9-0.5,2-0.1,2.5,0.9L138.7,114.4z"/>
		<path class="st1" d="M131.4,75.1c0.5,0.9,0.1,2-0.9,2.5l0,0c-0.9,0.5-2,0.1-2.5-0.9l-10.8-20.4c-0.5-0.9-0.1-2,0.9-2.5l0,0
			c0.9-0.5,2-0.1,2.5,0.9L131.4,75.1z"/>
		<path class="st1" d="M194,130.7c-1,0.4-2-0.1-2.4-1.1l0,0c-0.4-1,0.1-2,1.1-2.4l33.3-12.1c1-0.4,2,0.1,2.4,1.1l0,0
			c0.3,1-0.1,2-1.1,2.4L194,130.7z"/>
		<path class="st1" d="M160.4,182.7c-0.2-1,0.5-2,1.6-2.1l0,0c1-0.2,2,0.6,2.1,1.6l5.2,35c0.2,1-0.6,2-1.6,2.1l0,0
			c-1,0.2-2-0.6-2.1-1.6L160.4,182.7z"/>
		<path class="st1" d="M179.5,206.3c-0.5-0.9-0.1-2,0.8-2.5l0,0c0.9-0.5,2-0.1,2.5,0.8l15.8,31.7c0.5,0.9,0.1,2-0.8,2.5l0,0
			c-0.9,0.5-2,0.1-2.5-0.8L179.5,206.3z"/>
		<path class="st1" d="M216.8,138.2c-1,0.1-1.9-0.7-2-1.7l0,0c-0.1-1,0.7-1.9,1.7-2l23-2.4c1-0.1,1.9,0.7,2,1.7l0,0
			c0.1,1-0.7,1.9-1.7,2L216.8,138.2z"/>
		<path class="st1" d="M186.4,166c-0.9-0.5-1.2-1.7-0.7-2.6l0,0c0.5-0.9,1.7-1.2,2.6-0.7l20.3,11.1c0.9,0.5,1.2,1.7,0.7,2.6l0,0
			c-0.5,0.9-1.7,1.2-2.6,0.7L186.4,166z"/>
		<path class="st1" d="M215.1,190.7c-0.9-0.5-1.2-1.7-0.7-2.6l0,0c0.5-0.9,1.7-1.2,2.6-0.7l20.3,11.1c0.9,0.5,1.2,1.7,0.7,2.6l0,0
			c-0.5,0.9-1.7,1.2-2.6,0.7L215.1,190.7z"/>
		<path class="st1" d="M117.6,160.7c1-0.2,2,0.5,2.2,1.5l0,0c0.2,1-0.5,2-1.5,2.2l-34.8,6.4c-1,0.2-2-0.5-2.2-1.5l0,0
			c-0.2-1,0.5-2,1.5-2.2L117.6,160.7z"/>
		<path class="st1" d="M94.6,180.5c0.9-0.5,2-0.1,2.5,0.8l0,0c0.5,0.9,0.1,2-0.8,2.5l-31.1,16.8c-0.9,0.5-2,0.1-2.5-0.8l0,0
			c-0.5-0.9-0.2-2,0.8-2.5L94.6,180.5z"/>
		<path class="st1" d="M135.2,186.1c0.5-0.9,1.6-1.2,2.5-0.7l0,0c0.9,0.5,1.2,1.6,0.7,2.5L128,208.6c-0.5,0.9-1.6,1.2-2.5,0.7l0,0
			c-0.9-0.5-1.2-1.6-0.7-2.5L135.2,186.1z"/>
		<path class="st1" d="M111.4,215.6c0.5-0.9,1.6-1.2,2.5-0.7l0,0c0.9,0.5,1.2,1.6,0.7,2.5l-10.4,20.7c-0.5,0.9-1.6,1.2-2.5,0.7l0,0
			c-0.9-0.5-1.2-1.6-0.7-2.5L111.4,215.6z"/>
	</g>
</g>
<g id="Layer_1">
	<g id="g7433">
		<path id="path7429" class="st3" d="M291,78.1c-3.4-12.6-13.3-22.5-25.9-25.9c-23-6.3-115.1-6.3-115.1-6.3s-92.1,0-115.1,6.1
			C22.5,55.4,12.4,65.6,9,78.2c-6.1,23-6.1,70.7-6.1,70.7s0,48,6.1,70.7c3.4,12.6,13.3,22.5,25.9,25.9c23.3,6.3,115.1,6.3,115.1,6.3
			s92.1,0,115.1-6.1c12.6-3.4,22.5-13.3,25.9-25.9c6.1-23,6.1-70.7,6.1-70.7S297.3,101.1,291,78.1L291,78.1z"/>
		<path id="polygon7431" class="st4" d="M120.7,104.7v88.2l76.6-44.1L120.7,104.7z"/>
	</g>
	<g id="g7451">
		<g id="g7449">
			<path id="path7435" class="st5" d="M430.1,233.4c-5.8-3.9-9.9-9.9-12.4-18.4c-2.4-8.2-3.6-19.4-3.6-32.9v-18.7
				c0-13.8,1.5-25,4.1-33.4c2.9-8.5,7.3-14.5,13.1-18.4c6.1-3.9,13.8-5.8,23.5-5.8c9.4,0,17.2,1.9,23,5.8s9.9,10.2,12.6,18.4
				c2.7,8.2,4.1,19.4,4.1,33.4v18.7c0,13.8-1.2,24.7-3.9,33.2c-2.7,8.2-6.8,14.5-12.6,18.4s-13.8,5.8-23.7,5.8
				C444.1,239.2,435.9,237.2,430.1,233.4L430.1,233.4z M462.8,213c1.7-4.1,2.4-11.1,2.4-20.6v-40.2c0-9.2-0.7-16-2.4-20.4
				s-4.4-6.3-8.5-6.3c-3.9,0-6.8,2.2-8.2,6.3c-1.7,4.4-2.4,11.1-2.4,20.4v40.2c0,9.4,0.7,16.5,2.4,20.6c1.5,4.1,4.4,6.3,8.5,6.3
				C458.4,219.3,461.1,217.4,462.8,213z"/>
			<path id="path7437" class="st5" d="M877.3,182.2v6.5c0,8.2,0.2,14.5,0.7,18.7c0.5,4.1,1.5,7.3,3.1,9c1.5,1.9,3.9,2.9,7.3,2.9
				c4.4,0,7.3-1.7,9-5.1s2.4-9,2.7-17l25,1.5c0.2,1.2,0.2,2.7,0.2,4.6c0,11.9-3.1,20.8-9.7,26.7c-6.5,5.8-15.7,8.7-27.6,8.7
				c-14.3,0-24.2-4.6-30-13.6s-8.7-22.8-8.7-41.7v-22.5c0-19.4,2.9-33.4,9-42.4s16.2-13.3,30.5-13.3c9.9,0,17.7,1.9,23,5.6
				c5.3,3.6,9,9.4,11.1,17c2.2,7.8,3.1,18.4,3.1,32v22h-48.7L877.3,182.2L877.3,182.2z M881,128c-1.5,1.9-2.4,4.8-2.9,9
				c-0.5,4.1-0.7,10.4-0.7,18.9v9.2h21.3v-9.3c0-8.2-0.2-14.5-0.7-18.9s-1.7-7.3-3.1-9s-3.9-2.7-6.8-2.7
				C884.6,125.1,882.4,126,881,128L881,128z"/>
			<path id="path7439" class="st5" d="M359.4,179.8L326.5,60.4h28.8l11.6,54c2.9,13.3,5.1,24.7,6.5,34.2h0.7
				c1-6.8,3.1-17.9,6.5-33.9l12.1-54.3h28.8l-33.3,119.4V237h-28.6v-57.2H359.4z"/>
			<path id="path7441" class="st5" d="M588.3,108.1v129.1h-22.8l-2.4-15.7h-0.7c-6.1,11.9-15.5,17.9-27.9,17.9
				c-8.5,0-14.8-2.9-18.9-8.5s-6.1-14.3-6.1-26.4v-96.4h29.1v94.7c0,5.8,0.7,9.9,1.9,12.4c1.2,2.4,3.4,3.6,6.3,3.6
				c2.4,0,4.8-0.7,7.3-2.4c2.4-1.5,4.1-3.4,5.1-5.8V108.1H588.3z"/>
			<path id="path7443" class="st5" d="M737.3,108.1v129.1h-22.8l-2.4-15.7h-0.7c-6.1,11.9-15.5,17.9-27.9,17.9
				c-8.5,0-14.8-2.9-18.9-8.5s-6.1-14.3-6.1-26.4v-96.4h29.1v94.7c0,5.8,0.7,9.9,1.9,12.4c1.2,2.4,3.4,3.6,6.3,3.6
				c2.4,0,4.8-0.7,7.3-2.4c2.4-1.5,4.1-3.4,5.1-5.8V108.1H737.3z"/>
			<path id="path7445" class="st5" d="M667.3,83.9h-28.8V237h-28.3V83.9h-28.8V60.4h86v23.5H667.3z"/>
			<path id="path7447" class="st5" d="M833.5,128.7c-1.7-8.2-4.6-14.1-8.5-17.7s-9.4-5.6-16.2-5.6c-5.3,0-10.4,1.5-15,4.6
				c-4.6,2.9-8.2,7-10.7,11.9h-0.2V53.8h-28.1V237h24l2.9-12.1h0.7c2.2,4.4,5.6,7.8,10.2,10.4c4.6,2.4,9.4,3.9,15,3.9
				c9.9,0,17-4.6,21.6-13.6s7-23.3,7-42.4v-20.4C835.9,148.1,835.2,136.7,833.5,128.7L833.5,128.7z M806.8,181.3
				c0,9.4-0.5,16.7-1.2,22s-2.2,9.2-3.9,11.4c-1.9,2.2-4.4,3.4-7.3,3.4c-2.4,0-4.6-0.5-6.5-1.7s-3.6-2.9-4.8-5.1v-73.2
				c1-3.4,2.7-6.3,5.1-8.7c2.4-2.2,5.1-3.4,7.8-3.4c2.9,0,5.3,1.2,6.8,3.4c1.7,2.4,2.7,6.3,3.4,11.6c0.7,5.6,1,13.3,1,23.3v17
				L806.8,181.3L806.8,181.3z"/>
		</g>
	</g>
</g>
</svg>
